<svg width="34" height="38" viewBox="0 0 34 38" fill="none" xmlns="http://www.w3.org/2000/svg">
<g filter="url(#filter0_d_0_888)">
<path fill-rule="evenodd" clip-rule="evenodd" d="M8.29635 9.97248C8.29761 9.99924 8.29889 10.0221 8.30005 10.041V14.5031L6.15152 16.6516L5.80005 17.0031V17.5001V21.2501V22.4501H7.00005H12.05V22.6501C12.05 25.3011 14.1991 27.4501 16.85 27.4501H17.15C19.801 27.4501 21.95 25.3011 21.95 22.6501V22.4501H27H28.2V21.2501V17.5001V17.0031L27.8486 16.6516L25.7 14.5031V10.041C25.7012 10.0221 25.7025 9.99924 25.7037 9.97248C25.7071 9.90225 25.7103 9.80516 25.711 9.68499C25.7124 9.44513 25.7039 9.11054 25.6651 8.71212C25.5883 7.92181 25.3894 6.84458 24.8878 5.75012C24.3821 4.64685 23.5626 3.51489 22.2527 2.66523C20.9416 1.81481 19.2208 1.30011 17 1.30011C14.7793 1.30011 13.0585 1.81481 11.7474 2.66523C10.4375 3.51489 9.61797 4.64685 9.1123 5.75012C8.61067 6.84458 8.41181 7.92181 8.33498 8.71212C8.29624 9.11054 8.28766 9.44513 8.28908 9.68499C8.2898 9.80516 8.29303 9.90225 8.29635 9.97248ZM19.55 22.4501H14.45V22.6501C14.45 23.9756 15.5246 25.0501 16.85 25.0501H17.15C18.4755 25.0501 19.55 23.9756 19.55 22.6501V22.4501ZM21.95 20.0501H25.8V17.9972L23.6515 15.8486L23.3 15.4972V15.0001V10.0001V9.9502L23.3038 9.90524L23.3039 9.90443L23.3039 9.90416L23.304 9.90264L23.3042 9.89973C23.3046 9.8927 23.3055 9.87907 23.3064 9.85928C23.3083 9.81965 23.3106 9.75561 23.3111 9.6707C23.3121 9.5004 23.306 9.24906 23.2764 8.94435C23.2165 8.32841 23.0638 7.53064 22.706 6.7501C22.3523 5.97837 21.8047 5.23533 20.9466 4.67874C20.0897 4.12291 18.8418 3.70011 17 3.70011C15.1583 3.70011 13.9104 4.12291 13.0535 4.67874C12.1954 5.23533 11.6478 5.97837 11.2941 6.7501C10.9363 7.53064 10.7836 8.32841 10.7237 8.94435C10.6941 9.24906 10.688 9.5004 10.689 9.6707C10.6895 9.75561 10.6918 9.81965 10.6937 9.85928C10.6946 9.87907 10.6954 9.8927 10.6959 9.89973L10.6962 9.90435L10.7 9.9502V10.0001V15.0001V15.4972L10.3486 15.8486L8.20005 17.9972V20.0501H12.05H13.25H20.75H21.95Z" fill="white"/>
<path d="M8.30005 10.041H8.55005C8.55005 10.0358 8.54989 10.0307 8.54958 10.0256L8.30005 10.041ZM8.29635 9.97248L8.54607 9.96069L8.29635 9.97248ZM8.30005 14.5031L8.47683 14.6798C8.52371 14.6329 8.55005 14.5694 8.55005 14.5031H8.30005ZM6.15152 16.6516L5.97474 16.4748L6.15152 16.6516ZM5.80005 17.0031L5.62327 16.8263C5.57639 16.8732 5.55005 16.9367 5.55005 17.0031H5.80005ZM5.80005 22.4501H5.55005C5.55005 22.5882 5.66198 22.7001 5.80005 22.7001V22.4501ZM12.05 22.4501H12.3C12.3 22.312 12.1881 22.2001 12.05 22.2001V22.4501ZM21.95 22.4501V22.2001C21.812 22.2001 21.7 22.312 21.7 22.4501H21.95ZM28.2 22.4501V22.7001C28.3381 22.7001 28.45 22.5882 28.45 22.4501H28.2ZM28.2 17.0031H28.45C28.45 16.9367 28.4237 16.8732 28.3768 16.8263L28.2 17.0031ZM27.8486 16.6516L27.6718 16.8284H27.6718L27.8486 16.6516ZM25.7 14.5031H25.45C25.45 14.5694 25.4764 14.6329 25.5233 14.6798L25.7 14.5031ZM25.7 10.041L25.4505 10.0256C25.4502 10.0307 25.45 10.0358 25.45 10.041H25.7ZM25.7037 9.97248L25.454 9.96069V9.9607L25.7037 9.97248ZM25.711 9.68499L25.461 9.6835V9.6835L25.711 9.68499ZM25.6651 8.71212L25.4163 8.73631L25.6651 8.71212ZM24.8878 5.75012L24.6605 5.85429L24.8878 5.75012ZM22.2527 2.66523L22.3887 2.45549L22.2527 2.66523ZM11.7474 2.66523L11.6114 2.45549L11.7474 2.66523ZM9.1123 5.75012L9.33956 5.85429L9.1123 5.75012ZM8.33498 8.71212L8.5838 8.73631L8.33498 8.71212ZM8.28908 9.68499L8.03909 9.68647V9.68648L8.28908 9.68499ZM19.55 22.4501H19.8C19.8 22.312 19.6881 22.2001 19.55 22.2001V22.4501ZM14.45 22.4501V22.2001C14.312 22.2001 14.2 22.312 14.2 22.4501H14.45ZM25.8 20.0501V20.3001C25.9381 20.3001 26.05 20.1882 26.05 20.0501H25.8ZM25.8 17.9972H26.05C26.05 17.9309 26.0237 17.8673 25.9768 17.8204L25.8 17.9972ZM23.6515 15.8486L23.8283 15.6719L23.6515 15.8486ZM23.3 15.4972H23.05C23.05 15.5635 23.0764 15.6271 23.1233 15.6739L23.3 15.4972ZM23.3 9.9502L23.0509 9.92936C23.0503 9.93629 23.05 9.94324 23.05 9.9502H23.3ZM23.3038 9.90524L23.553 9.92608L23.5532 9.9222L23.3038 9.90524ZM23.3039 9.90443L23.0551 9.87815L23.0544 9.88747L23.3039 9.90443ZM23.3039 9.90416L23.5526 9.93043L23.5531 9.92417L23.3039 9.90416ZM23.304 9.90264L23.5533 9.92265L23.5536 9.91756L23.304 9.90264ZM23.3042 9.89973L23.0547 9.88328L23.0546 9.88481L23.3042 9.89973ZM23.3064 9.85928L23.5561 9.87107V9.87107L23.3064 9.85928ZM23.3111 9.6707L23.5611 9.67219V9.67219L23.3111 9.6707ZM23.2764 8.94435L23.5252 8.92016V8.92016L23.2764 8.94435ZM22.706 6.7501L22.4788 6.85426L22.706 6.7501ZM20.9466 4.67874L21.0827 4.469V4.469L20.9466 4.67874ZM13.0535 4.67874L13.1895 4.88848L13.0535 4.67874ZM11.2941 6.7501L11.0668 6.64593L11.2941 6.7501ZM10.7237 8.94435L10.4749 8.92016L10.7237 8.94435ZM10.689 9.6707L10.439 9.67219L10.689 9.6707ZM10.6937 9.85928L10.9434 9.84749V9.84748L10.6937 9.85928ZM10.6959 9.89973L10.4464 9.91617L10.4465 9.91692L10.6959 9.89973ZM10.6962 9.90435L10.4468 9.92153L10.4471 9.92511L10.6962 9.90435ZM10.7 9.9502H10.95C10.95 9.94327 10.9498 9.93634 10.9492 9.92943L10.7 9.9502ZM10.7 15.4972L10.8768 15.6739C10.9237 15.6271 10.95 15.5635 10.95 15.4972H10.7ZM8.20005 17.9972L8.02327 17.8204C7.97639 17.8673 7.95005 17.9309 7.95005 17.9972H8.20005ZM8.20005 20.0501H7.95005C7.95005 20.1882 8.06198 20.3001 8.20005 20.3001V20.0501ZM8.54958 10.0256C8.54849 10.0079 8.54728 9.98624 8.54607 9.96069L8.04663 9.98428C8.04795 10.0123 8.04929 10.0363 8.05052 10.0563L8.54958 10.0256ZM8.55005 14.5031V10.041H8.05005V14.5031H8.55005ZM6.3283 16.8284L8.47683 14.6798L8.12327 14.3263L5.97474 16.4748L6.3283 16.8284ZM5.97683 17.1798L6.3283 16.8284L5.97474 16.4748L5.62327 16.8263L5.97683 17.1798ZM6.05005 17.5001V17.0031H5.55005V17.5001H6.05005ZM6.05005 21.2501V17.5001H5.55005V21.2501H6.05005ZM6.05005 22.4501V21.2501H5.55005V22.4501H6.05005ZM7.00005 22.2001H5.80005V22.7001H7.00005V22.2001ZM12.05 22.2001H7.00005V22.7001H12.05V22.2001ZM12.3 22.6501V22.4501H11.8V22.6501H12.3ZM16.85 27.2001C14.3371 27.2001 12.3 25.163 12.3 22.6501H11.8C11.8 25.4391 14.061 27.7001 16.85 27.7001V27.2001ZM17.15 27.2001H16.85V27.7001H17.15V27.2001ZM21.7 22.6501C21.7 25.163 19.6629 27.2001 17.15 27.2001V27.7001C19.9391 27.7001 22.2 25.4391 22.2 22.6501H21.7ZM21.7 22.4501V22.6501H22.2V22.4501H21.7ZM27 22.2001H21.95V22.7001H27V22.2001ZM28.2 22.2001H27V22.7001H28.2V22.2001ZM27.95 21.2501V22.4501H28.45V21.2501H27.95ZM27.95 17.5001V21.2501H28.45V17.5001H27.95ZM27.95 17.0031V17.5001H28.45V17.0031H27.95ZM27.6718 16.8284L28.0233 17.1798L28.3768 16.8263L28.0254 16.4748L27.6718 16.8284ZM25.5233 14.6798L27.6718 16.8284L28.0254 16.4748L25.8768 14.3263L25.5233 14.6798ZM25.45 10.041V14.5031H25.95V10.041H25.45ZM25.454 9.9607C25.4528 9.98623 25.4516 10.0079 25.4505 10.0256L25.9496 10.0563C25.9508 10.0363 25.9521 10.0123 25.9535 9.98427L25.454 9.9607ZM25.461 9.6835C25.4603 9.8 25.4572 9.89365 25.454 9.96069L25.9535 9.98428C25.9569 9.91086 25.9603 9.81032 25.961 9.68647L25.461 9.6835ZM25.4163 8.73631C25.4541 9.12497 25.4624 9.45089 25.461 9.6835L25.961 9.68648C25.9625 9.43938 25.9536 9.09611 25.9139 8.68792L25.4163 8.73631ZM24.6605 5.85429C25.1472 6.91605 25.3412 7.96417 25.4163 8.73631L25.9139 8.68792C25.8353 7.87945 25.6317 6.77312 25.1151 5.64596L24.6605 5.85429ZM22.1166 2.87497C23.3794 3.69408 24.1707 4.78551 24.6605 5.85429L25.1151 5.64596C24.5936 4.50818 23.7457 3.3357 22.3887 2.45549L22.1166 2.87497ZM17 1.55011C19.1814 1.55011 20.8529 2.05525 22.1166 2.87497L22.3887 2.45549C21.0303 1.57437 19.2603 1.05011 17 1.05011V1.55011ZM11.8835 2.87497C13.1472 2.05525 14.8187 1.55011 17 1.55011V1.05011C14.7398 1.05011 12.9698 1.57437 11.6114 2.45549L11.8835 2.87497ZM9.33956 5.85429C9.82942 4.78551 10.6207 3.69408 11.8835 2.87497L11.6114 2.45549C10.2544 3.3357 9.40651 4.50818 8.88503 5.64596L9.33956 5.85429ZM8.5838 8.73631C8.65887 7.96417 8.85292 6.91605 9.33956 5.85429L8.88503 5.64596C8.36842 6.77312 8.16475 7.87945 8.08615 8.68792L8.5838 8.73631ZM8.53908 9.6835C8.53769 9.45089 8.54602 9.12497 8.5838 8.73631L8.08615 8.68792C8.04647 9.09611 8.03762 9.43938 8.03909 9.68647L8.53908 9.6835ZM8.54607 9.96069C8.54291 9.89365 8.53977 9.79999 8.53908 9.6835L8.03909 9.68648C8.03983 9.81032 8.04316 9.91086 8.04663 9.98428L8.54607 9.96069ZM19.55 22.2001H14.45V22.7001H19.55V22.2001ZM14.2 22.4501V22.6501H14.7V22.4501H14.2ZM14.2 22.6501C14.2 24.1137 15.3865 25.3001 16.85 25.3001V24.8001C15.6626 24.8001 14.7 23.8375 14.7 22.6501H14.2ZM16.85 25.3001H17.15V24.8001H16.85V25.3001ZM17.15 25.3001C18.6136 25.3001 19.8 24.1137 19.8 22.6501H19.3C19.3 23.8375 18.3375 24.8001 17.15 24.8001V25.3001ZM19.8 22.6501V22.4501H19.3V22.6501H19.8ZM21.95 20.3001H25.8V19.8001H21.95V20.3001ZM26.05 20.0501V17.9972H25.55V20.0501H26.05ZM25.9768 17.8204L23.8283 15.6719L23.4747 16.0254L25.6233 18.1739L25.9768 17.8204ZM23.8283 15.6719L23.4768 15.3204L23.1233 15.6739L23.4747 16.0254L23.8283 15.6719ZM23.55 15.4972V15.0001H23.05V15.4972H23.55ZM23.55 15.0001V10.0001H23.05V15.0001H23.55ZM23.55 10.0001V9.9502H23.05V10.0001H23.55ZM23.5492 9.97103L23.5529 9.92607L23.0547 9.88441L23.0509 9.92936L23.5492 9.97103ZM23.5532 9.9222L23.5533 9.92139L23.0544 9.88747L23.0544 9.88828L23.5532 9.9222ZM23.5525 9.93069L23.5525 9.93042L23.0553 9.87789L23.0552 9.87817L23.5525 9.93069ZM23.5531 9.92417L23.5532 9.92265L23.0548 9.88263L23.0547 9.88415L23.5531 9.92417ZM23.5536 9.91756L23.5537 9.91465L23.0546 9.88481L23.0545 9.88772L23.5536 9.91756ZM23.5536 9.91618C23.5542 9.90766 23.5551 9.89247 23.5561 9.87107L23.0567 9.84749C23.0558 9.86567 23.0551 9.87775 23.0547 9.88328L23.5536 9.91618ZM23.5561 9.87107C23.5582 9.82825 23.5605 9.76077 23.5611 9.67219L23.0611 9.66921C23.0606 9.75045 23.0584 9.81104 23.0567 9.84749L23.5561 9.87107ZM23.5611 9.67219C23.5621 9.49464 23.5558 9.23463 23.5252 8.92016L23.0276 8.96854C23.0562 9.26349 23.062 9.50616 23.0611 9.66922L23.5611 9.67219ZM23.5252 8.92016C23.4636 8.28606 23.306 7.45917 22.9333 6.64593L22.4788 6.85426C22.8215 7.6021 22.9694 8.37076 23.0276 8.96855L23.5252 8.92016ZM22.9333 6.64593C22.5638 5.83961 21.9878 5.05609 21.0827 4.469L20.8106 4.88848C21.6216 5.41457 22.1409 6.11713 22.4788 6.85426L22.9333 6.64593ZM21.0827 4.469C20.1785 3.8825 18.8813 3.45011 17 3.45011V3.95011C18.8022 3.95011 20.001 4.36332 20.8106 4.88848L21.0827 4.469ZM17 3.45011C15.1188 3.45011 13.8216 3.8825 12.9174 4.469L13.1895 4.88848C13.9991 4.36332 15.1979 3.95011 17 3.95011V3.45011ZM12.9174 4.469C12.0123 5.05609 11.4363 5.83961 11.0668 6.64593L11.5213 6.85426C11.8592 6.11713 12.3785 5.41457 13.1895 4.88848L12.9174 4.469ZM11.0668 6.64593C10.694 7.45917 10.5365 8.28606 10.4749 8.92016L10.9725 8.96855C11.0307 8.37076 11.1786 7.6021 11.5213 6.85426L11.0668 6.64593ZM10.4749 8.92016C10.4443 9.23463 10.438 9.49464 10.439 9.67219L10.939 9.66921C10.9381 9.50615 10.9439 9.26349 10.9725 8.96855L10.4749 8.92016ZM10.439 9.67219C10.4396 9.76077 10.4419 9.82825 10.444 9.87107L10.9434 9.84748C10.9417 9.81104 10.9395 9.75045 10.939 9.66921L10.439 9.67219ZM10.444 9.87107C10.445 9.89246 10.4459 9.90764 10.4465 9.91617L10.9454 9.8833C10.945 9.87777 10.9443 9.86568 10.9434 9.84749L10.444 9.87107ZM10.4465 9.91692L10.4468 9.92153L10.9456 9.88717L10.9453 9.88255L10.4465 9.91692ZM10.4471 9.92511L10.4509 9.97096L10.9492 9.92943L10.9454 9.88359L10.4471 9.92511ZM10.45 9.9502V10.0001H10.95V9.9502H10.45ZM10.45 10.0001V15.0001H10.95V10.0001H10.45ZM10.45 15.0001V15.4972H10.95V15.0001H10.45ZM10.5233 15.3204L10.1718 15.6719L10.5254 16.0254L10.8768 15.6739L10.5233 15.3204ZM10.1718 15.6719L8.02327 17.8204L8.37683 18.1739L10.5254 16.0254L10.1718 15.6719ZM7.95005 17.9972V20.0501H8.45005V17.9972H7.95005ZM8.20005 20.3001H12.05V19.8001H8.20005V20.3001ZM12.05 20.3001H13.25V19.8001H12.05V20.3001ZM13.25 20.3001H20.75V19.8001H13.25V20.3001ZM20.75 20.3001H21.95V19.8001H20.75V20.3001Z" fill="white"/>
</g>
<defs>
<filter id="filter0_d_0_888" x="-2.8" y="0" width="39.6" height="39.6" filterUnits="userSpaceOnUse" color-interpolation-filters="sRGB">
<feFlood flood-opacity="0" result="BackgroundImageFix"/>
<feColorMatrix in="SourceAlpha" type="matrix" values="0 0 0 0 0 0 0 0 0 0 0 0 0 0 0 0 0 0 127 0" result="hardAlpha"/>
<feOffset dy="4.8"/>
<feGaussianBlur stdDeviation="2.4"/>
<feComposite in2="hardAlpha" operator="out"/>
<feColorMatrix type="matrix" values="0 0 0 0 0 0 0 0 0 0 0 0 0 0 0 0 0 0 0.25 0"/>
<feBlend mode="normal" in2="BackgroundImageFix" result="effect1_dropShadow_0_888"/>
<feBlend mode="normal" in="SourceGraphic" in2="effect1_dropShadow_0_888" result="shape"/>
</filter>
</defs>
</svg>
