<svg width="35" height="35" viewBox="0 0 35 35" fill="none" xmlns="http://www.w3.org/2000/svg">
<g filter="url(#filter0_d_0_261)">
<path d="M18.4643 6.74782C18.4643 9.94215 15.8739 12.5317 12.6786 12.5317C9.48321 12.5317 6.89286 9.94215 6.89286 6.74782C6.89286 3.55349 9.48321 0.963974 12.6786 0.963974C15.8739 0.963974 18.4643 3.55349 18.4643 6.74782Z" fill="white"/>
<path d="M27.355 16.1939C28.1115 15.5573 28.6538 14.7036 28.9086 13.7485C29.1634 12.7934 29.1183 11.783 28.7794 10.8544C28.4404 9.92585 27.8241 9.12387 27.0139 8.55723C26.2037 7.99058 25.2388 7.68666 24.25 7.68666C23.2612 7.68666 22.2963 7.99058 21.4861 8.55723C20.6759 9.12387 20.0596 9.92585 19.7206 10.8544C19.3817 11.783 19.3366 12.7934 19.5914 13.7485C19.8462 14.7036 20.3885 15.5573 21.145 16.1939C20.9296 16.3046 20.7204 16.4269 20.5182 16.5602C19.656 14.7326 18.1827 13.2631 16.3525 12.4054C17.5728 11.6125 18.504 10.4465 19.0073 9.08131C19.5106 7.71613 19.559 6.22489 19.1454 4.82994C18.7317 3.435 17.8781 2.21107 16.7119 1.34067C15.5456 0.470263 14.1292 0 12.6737 0C11.2183 0 9.80189 0.470263 8.63564 1.34067C7.46939 2.21107 6.61579 3.435 6.20213 4.82994C5.78847 6.22489 5.8369 7.71613 6.3402 9.08131C6.84351 10.4465 7.77472 11.6125 8.995 12.4054C7.50322 13.1045 6.24132 14.2136 5.35679 15.6031C4.47226 16.9927 4.00166 18.6052 4 20.2522V26.036C4 26.2917 4.10159 26.5369 4.28243 26.7177C4.46327 26.8984 4.70854 27 4.96429 27H30.0357C30.2915 27 30.5367 26.8984 30.7176 26.7177C30.8984 26.5369 31 26.2917 31 26.036V22.1801C30.999 20.9443 30.6586 19.7325 30.0158 18.6769C29.3731 17.6212 28.4527 16.7623 27.355 16.1939ZM21.3571 12.5404C21.3571 11.9684 21.5268 11.4093 21.8447 10.9337C22.1625 10.4581 22.6144 10.0875 23.143 9.8686C23.6716 9.64972 24.2532 9.59245 24.8144 9.70403C25.3755 9.81562 25.891 10.091 26.2956 10.4955C26.7001 10.8999 26.9757 11.4152 27.0873 11.9762C27.1989 12.5372 27.1416 13.1187 26.9227 13.6471C26.7037 14.1755 26.3329 14.6272 25.8572 14.9449C25.3815 15.2627 24.8222 15.4323 24.25 15.4323C23.4828 15.4323 22.747 15.1276 22.2044 14.5853C21.6619 14.0429 21.3571 13.3074 21.3571 12.5404ZM7.85714 6.75654C7.85714 5.80326 8.13991 4.87139 8.6697 4.07877C9.19949 3.28614 9.95249 2.66837 10.8335 2.30357C11.7145 1.93876 12.6839 1.84331 13.6192 2.02929C14.5545 2.21526 15.4135 2.67431 16.0878 3.34838C16.7621 4.02245 17.2213 4.88127 17.4074 5.81623C17.5934 6.7512 17.4979 7.72031 17.133 8.60103C16.7681 9.48174 16.1501 10.2345 15.3572 10.7641C14.5643 11.2937 13.6322 11.5764 12.6786 11.5764C11.3998 11.5764 10.1735 11.0686 9.26931 10.1647C8.36511 9.26081 7.85714 8.03485 7.85714 6.75654ZM5.92857 25.0721V20.2522C5.92857 18.4625 6.63973 16.7462 7.9056 15.4808C9.17147 14.2153 10.8884 13.5044 12.6786 13.5044C14.4688 13.5044 16.1857 14.2153 17.4515 15.4808C18.7174 16.7462 19.4286 18.4625 19.4286 20.2522V25.0721H5.92857ZM29.0714 25.0721H21.3571V20.2522C21.359 19.663 21.3009 19.0752 21.1836 18.4977C22.0372 17.765 23.1248 17.3615 24.25 17.3603C25.5287 17.3603 26.7551 17.8681 27.6593 18.772C28.5635 19.6759 29.0714 20.9018 29.0714 22.1801V25.0721Z" fill="white"/>
<path d="M27.1429 12.5317C27.1429 14.1288 25.8477 15.4236 24.25 15.4236C22.6523 15.4236 21.3571 14.1288 21.3571 12.5317C21.3571 10.9345 22.6523 9.63974 24.25 9.63974C25.8477 9.63974 27.1429 10.9345 27.1429 12.5317Z" fill="white"/>
<path d="M19.4286 19.2795C19.4286 23.0062 16.4065 26.0273 12.6786 26.0273C8.95065 26.0273 5.92857 23.0062 5.92857 19.2795C5.92857 15.5528 8.95065 12.5317 12.6786 12.5317C16.4065 12.5317 19.4286 15.5528 19.4286 19.2795Z" fill="white"/>
<path d="M4.96429 19.2795H30.0357V26.0273H4.96429V19.2795Z" fill="white"/>
<path d="M29.0714 19.2795C29.0714 20.8766 27.1287 22.1714 24.7321 22.1714C22.3356 22.1714 20.3929 20.8766 20.3929 19.2795C20.3929 17.6823 22.3356 16.3876 24.7321 16.3876C27.1287 16.3876 29.0714 17.6823 29.0714 19.2795Z" fill="white"/>
</g>
<defs>
<filter id="filter0_d_0_261" x="0" y="0" width="35" height="35" filterUnits="userSpaceOnUse" color-interpolation-filters="sRGB">
<feFlood flood-opacity="0" result="BackgroundImageFix"/>
<feColorMatrix in="SourceAlpha" type="matrix" values="0 0 0 0 0 0 0 0 0 0 0 0 0 0 0 0 0 0 127 0" result="hardAlpha"/>
<feOffset dy="4"/>
<feGaussianBlur stdDeviation="2"/>
<feComposite in2="hardAlpha" operator="out"/>
<feColorMatrix type="matrix" values="0 0 0 0 0 0 0 0 0 0 0 0 0 0 0 0 0 0 0.25 0"/>
<feBlend mode="normal" in2="BackgroundImageFix" result="effect1_dropShadow_0_261"/>
<feBlend mode="normal" in="SourceGraphic" in2="effect1_dropShadow_0_261" result="shape"/>
</filter>
</defs>
</svg>
