<svg width="27" height="27" viewBox="0 0 27 27" fill="none" xmlns="http://www.w3.org/2000/svg">
<path d="M14.4643 6.74782C14.4643 9.94215 11.8739 12.5317 8.67857 12.5317C5.48321 12.5317 2.89286 9.94215 2.89286 6.74782C2.89286 3.55349 5.48321 0.963974 8.67857 0.963974C11.8739 0.963974 14.4643 3.55349 14.4643 6.74782Z" fill="white"/>
<path d="M23.355 16.1939C24.1115 15.5573 24.6538 14.7036 24.9086 13.7485C25.1634 12.7934 25.1183 11.783 24.7794 10.8544C24.4404 9.92585 23.8241 9.12387 23.0139 8.55723C22.2037 7.99058 21.2388 7.68666 20.25 7.68666C19.2612 7.68666 18.2963 7.99058 17.4861 8.55723C16.6759 9.12387 16.0596 9.92585 15.7206 10.8544C15.3817 11.783 15.3366 12.7934 15.5914 13.7485C15.8462 14.7036 16.3885 15.5573 17.145 16.1939C16.9296 16.3046 16.7204 16.4269 16.5182 16.5602C15.656 14.7326 14.1827 13.2631 12.3525 12.4054C13.5728 11.6125 14.504 10.4465 15.0073 9.08131C15.5106 7.71613 15.559 6.22489 15.1454 4.82994C14.7317 3.435 13.8781 2.21107 12.7119 1.34067C11.5456 0.470263 10.1292 0 8.67375 0C7.21833 0 5.80189 0.470263 4.63564 1.34067C3.46939 2.21107 2.61579 3.435 2.20213 4.82994C1.78847 6.22489 1.8369 7.71613 2.3402 9.08131C2.84351 10.4465 3.77472 11.6125 4.995 12.4054C3.50322 13.1045 2.24132 14.2136 1.35679 15.6031C0.472264 16.9927 0.00166365 18.6052 0 20.2522V26.036C0 26.2917 0.101594 26.5369 0.282433 26.7177C0.463271 26.8984 0.708541 27 0.964286 27H26.0357C26.2915 27 26.5367 26.8984 26.7176 26.7177C26.8984 26.5369 27 26.2917 27 26.036V22.1801C26.999 20.9443 26.6586 19.7325 26.0158 18.6769C25.3731 17.6212 24.4527 16.7623 23.355 16.1939ZM17.3571 12.5404C17.3571 11.9684 17.5268 11.4093 17.8447 10.9337C18.1625 10.4581 18.6144 10.0875 19.143 9.8686C19.6716 9.64972 20.2532 9.59245 20.8144 9.70403C21.3755 9.81562 21.891 10.091 22.2956 10.4955C22.7001 10.8999 22.9757 11.4152 23.0873 11.9762C23.1989 12.5372 23.1416 13.1187 22.9227 13.6471C22.7037 14.1755 22.3329 14.6272 21.8572 14.9449C21.3815 15.2627 20.8222 15.4323 20.25 15.4323C19.4828 15.4323 18.747 15.1276 18.2044 14.5853C17.6619 14.0429 17.3571 13.3074 17.3571 12.5404ZM3.85714 6.75654C3.85714 5.80326 4.13991 4.87139 4.6697 4.07877C5.19949 3.28614 5.95249 2.66837 6.83349 2.30357C7.71449 1.93876 8.68392 1.84331 9.61919 2.02929C10.5545 2.21526 11.4135 2.67431 12.0878 3.34838C12.7621 4.02245 13.2213 4.88127 13.4074 5.81623C13.5934 6.7512 13.4979 7.72031 13.133 8.60103C12.7681 9.48174 12.1501 10.2345 11.3572 10.7641C10.5643 11.2937 9.63216 11.5764 8.67857 11.5764C7.39985 11.5764 6.1735 11.0686 5.26931 10.1647C4.36511 9.26081 3.85714 8.03485 3.85714 6.75654ZM1.92857 25.0721V20.2522C1.92857 18.4625 2.63973 16.7462 3.9056 15.4808C5.17147 14.2153 6.88836 13.5044 8.67857 13.5044C10.4688 13.5044 12.1857 14.2153 13.4515 15.4808C14.7174 16.7462 15.4286 18.4625 15.4286 20.2522V25.0721H1.92857ZM25.0714 25.0721H17.3571V20.2522C17.359 19.663 17.3009 19.0752 17.1836 18.4977C18.0372 17.765 19.1248 17.3615 20.25 17.3603C21.5287 17.3603 22.7551 17.8681 23.6593 18.772C24.5635 19.6759 25.0714 20.9018 25.0714 22.1801V25.0721Z" fill="white"/>
<path d="M23.1429 12.5317C23.1429 14.1288 21.8477 15.4236 20.25 15.4236C18.6523 15.4236 17.3571 14.1288 17.3571 12.5317C17.3571 10.9345 18.6523 9.63974 20.25 9.63974C21.8477 9.63974 23.1429 10.9345 23.1429 12.5317Z" fill="white"/>
<path d="M15.4286 19.2795C15.4286 23.0062 12.4065 26.0273 8.67857 26.0273C4.95065 26.0273 1.92857 23.0062 1.92857 19.2795C1.92857 15.5528 4.95065 12.5317 8.67857 12.5317C12.4065 12.5317 15.4286 15.5528 15.4286 19.2795Z" fill="white"/>
<path d="M0.964286 19.2795H26.0357V26.0273H0.964286V19.2795Z" fill="white"/>
<path d="M25.0714 19.2795C25.0714 20.8766 23.1287 22.1714 20.7321 22.1714C18.3356 22.1714 16.3929 20.8766 16.3929 19.2795C16.3929 17.6823 18.3356 16.3876 20.7321 16.3876C23.1287 16.3876 25.0714 17.6823 25.0714 19.2795Z" fill="white"/>
</svg>
