<svg width="35" height="35" viewBox="0 0 35 35" fill="none" xmlns="http://www.w3.org/2000/svg">
<g filter="url(#filter0_d_0_887)">
<path d="M26.625 15.9943C27.3254 15.4049 27.8276 14.6144 28.0635 13.7301C28.2994 12.8457 28.2577 11.9102 27.9438 11.0504C27.63 10.1906 27.0593 9.44803 26.3092 8.92336C25.559 8.39868 24.6656 8.11727 23.75 8.11727C22.8344 8.11727 21.941 8.39868 21.1908 8.92336C20.4407 9.44803 19.87 10.1906 19.5562 11.0504C19.2423 11.9102 19.2005 12.8457 19.4365 13.7301C19.6724 14.6144 20.1746 15.4049 20.875 15.9943C20.6756 16.0969 20.4819 16.2101 20.2946 16.3335C19.4963 14.6413 18.1321 13.2807 16.4375 12.4865C17.5674 11.7523 18.4296 10.6727 18.8956 9.40862C19.3617 8.14456 19.4065 6.76378 19.0235 5.47217C18.6405 4.18055 17.8501 3.04729 16.7702 2.24136C15.6904 1.43543 14.3789 1 13.0312 1C11.6836 1 10.3721 1.43543 9.29226 2.24136C8.2124 3.04729 7.42203 4.18055 7.03901 5.47217C6.65599 6.76378 6.70083 8.14456 7.16686 9.40862C7.63288 10.6727 8.49512 11.7523 9.625 12.4865C8.24373 13.1338 7.07529 14.1608 6.25629 15.4473C5.43728 16.7339 5.00154 18.227 5 19.752V25.1074C5 25.3442 5.09407 25.5712 5.26151 25.7386C5.42895 25.906 5.65606 26 5.89286 26H29.1071C29.3439 26 29.571 25.906 29.7385 25.7386C29.9059 25.5712 30 25.3442 30 25.1074V21.5372C29.9991 20.3929 29.6839 19.2708 29.0887 18.2934C28.4936 17.316 27.6414 16.5207 26.625 15.9943ZM21.0714 12.6115C21.0714 12.0819 21.2285 11.5642 21.5228 11.1238C21.8172 10.6835 22.2355 10.3403 22.725 10.1376C23.2144 9.93492 23.753 9.8819 24.2726 9.98522C24.7922 10.0885 25.2694 10.3436 25.644 10.718C26.0186 11.0925 26.2738 11.5697 26.3771 12.0891C26.4805 12.6085 26.4274 13.1469 26.2247 13.6362C26.0219 14.1255 25.6786 14.5437 25.2381 14.8379C24.7976 15.1321 24.2798 15.2892 23.75 15.2892C23.0396 15.2892 22.3583 15.0071 21.856 14.5049C21.3536 14.0027 21.0714 13.3216 21.0714 12.6115ZM8.57143 7.25606C8.57143 6.37339 8.83325 5.51055 9.3238 4.77664C9.81434 4.04273 10.5116 3.47071 11.3273 3.13293C12.143 2.79515 13.0407 2.70677 13.9067 2.87897C14.7726 3.05117 15.5681 3.47621 16.1924 4.10035C16.8168 4.72449 17.242 5.5197 17.4142 6.3854C17.5865 7.25111 17.4981 8.14844 17.1602 8.96392C16.8223 9.77939 16.2501 10.4764 15.5159 10.9668C14.7818 11.4572 13.9187 11.7189 13.0357 11.7189C11.8517 11.7189 10.7162 11.2487 9.87899 10.4118C9.04177 9.57482 8.57143 8.43968 8.57143 7.25606ZM18.3929 24.2149H6.78571V19.752C6.78571 18.095 7.44419 16.5058 8.6163 15.334C9.7884 14.1623 11.3781 13.504 13.0357 13.504C14.6933 13.504 16.283 14.1623 17.4551 15.334C18.6272 16.5058 19.2857 18.095 19.2857 19.752V24.2149H18.3929ZM28.2143 24.2149H21.0714V19.752C21.0732 19.2065 21.0193 18.6622 20.9107 18.1275C21.7011 17.4491 22.7082 17.0755 23.75 17.0743C24.934 17.0743 26.0695 17.5445 26.9067 18.3815C27.7439 19.2184 28.2143 20.3535 28.2143 21.5372V24.2149Z" fill="white"/>
<path d="M26.625 15.9943C27.3254 15.4049 27.8276 14.6144 28.0635 13.7301C28.2994 12.8457 28.2577 11.9102 27.9438 11.0504C27.63 10.1906 27.0593 9.44803 26.3092 8.92336C25.559 8.39868 24.6656 8.11727 23.75 8.11727C22.8344 8.11727 21.941 8.39868 21.1908 8.92336C20.4407 9.44803 19.87 10.1906 19.5562 11.0504C19.2423 11.9102 19.2005 12.8457 19.4365 13.7301C19.6724 14.6144 20.1746 15.4049 20.875 15.9943C20.6756 16.0969 20.4819 16.2101 20.2946 16.3335C19.4963 14.6413 18.1321 13.2807 16.4375 12.4865C17.5674 11.7523 18.4296 10.6727 18.8956 9.40862C19.3617 8.14456 19.4065 6.76378 19.0235 5.47217C18.6405 4.18055 17.8501 3.04729 16.7702 2.24136C15.6904 1.43543 14.3789 1 13.0312 1C11.6836 1 10.3721 1.43543 9.29226 2.24136C8.2124 3.04729 7.42203 4.18055 7.03901 5.47217C6.65599 6.76378 6.70083 8.14456 7.16686 9.40862C7.63288 10.6727 8.49512 11.7523 9.625 12.4865C8.24373 13.1338 7.07529 14.1608 6.25629 15.4473C5.43728 16.7339 5.00154 18.227 5 19.752V25.1074C5 25.3442 5.09407 25.5712 5.26151 25.7386C5.42895 25.906 5.65606 26 5.89286 26H29.1071C29.3439 26 29.571 25.906 29.7385 25.7386C29.9059 25.5712 30 25.3442 30 25.1074V21.5372C29.9991 20.3929 29.6839 19.2708 29.0887 18.2934C28.4936 17.316 27.6414 16.5207 26.625 15.9943ZM21.0714 12.6115C21.0714 12.0819 21.2285 11.5642 21.5228 11.1238C21.8172 10.6835 22.2355 10.3403 22.725 10.1376C23.2144 9.93492 23.753 9.8819 24.2726 9.98522C24.7922 10.0885 25.2694 10.3436 25.644 10.718C26.0186 11.0925 26.2738 11.5697 26.3771 12.0891C26.4805 12.6085 26.4274 13.1469 26.2247 13.6362C26.0219 14.1255 25.6786 14.5437 25.2381 14.8379C24.7976 15.1321 24.2798 15.2892 23.75 15.2892C23.0396 15.2892 22.3583 15.0071 21.856 14.5049C21.3536 14.0027 21.0714 13.3216 21.0714 12.6115ZM8.57143 7.25606C8.57143 6.37339 8.83325 5.51055 9.3238 4.77664C9.81434 4.04273 10.5116 3.47071 11.3273 3.13293C12.143 2.79515 13.0407 2.70677 13.9067 2.87897C14.7726 3.05117 15.5681 3.47621 16.1924 4.10035C16.8168 4.72449 17.242 5.5197 17.4142 6.3854C17.5865 7.25111 17.4981 8.14844 17.1602 8.96392C16.8223 9.77939 16.2501 10.4764 15.5159 10.9668C14.7818 11.4572 13.9187 11.7189 13.0357 11.7189C11.8517 11.7189 10.7162 11.2487 9.87899 10.4118C9.04177 9.57482 8.57143 8.43968 8.57143 7.25606ZM18.3929 24.2149H6.78571V19.752C6.78571 18.095 7.44419 16.5058 8.6163 15.334C9.7884 14.1623 11.3781 13.504 13.0357 13.504C14.6933 13.504 16.283 14.1623 17.4551 15.334C18.6272 16.5058 19.2857 18.095 19.2857 19.752V24.2149H18.3929ZM28.2143 24.2149H21.0714V19.752C21.0732 19.2065 21.0193 18.6622 20.9107 18.1275C21.7011 17.4491 22.7082 17.0755 23.75 17.0743C24.934 17.0743 26.0695 17.5445 26.9067 18.3815C27.7439 19.2184 28.2143 20.3535 28.2143 21.5372V24.2149Z" stroke="white" stroke-width="0.75"/>
</g>
<defs>
<filter id="filter0_d_0_887" x="0.625" y="0.625" width="33.75" height="33.75" filterUnits="userSpaceOnUse" color-interpolation-filters="sRGB">
<feFlood flood-opacity="0" result="BackgroundImageFix"/>
<feColorMatrix in="SourceAlpha" type="matrix" values="0 0 0 0 0 0 0 0 0 0 0 0 0 0 0 0 0 0 127 0" result="hardAlpha"/>
<feOffset dy="4"/>
<feGaussianBlur stdDeviation="2"/>
<feComposite in2="hardAlpha" operator="out"/>
<feColorMatrix type="matrix" values="0 0 0 0 0 0 0 0 0 0 0 0 0 0 0 0 0 0 0.25 0"/>
<feBlend mode="normal" in2="BackgroundImageFix" result="effect1_dropShadow_0_887"/>
<feBlend mode="normal" in="SourceGraphic" in2="effect1_dropShadow_0_887" result="shape"/>
</filter>
</defs>
</svg>
