<svg width="42" height="37" viewBox="0 0 42 37" fill="none" xmlns="http://www.w3.org/2000/svg">
<g filter="url(#filter0_d_0_675)">
<path d="M6 26.5136H9M9 26.5136H18M9 26.5136V13.6917C9 12.8903 9 12.4893 9.09746 12.1163C9.18383 11.7858 9.32668 11.473 9.51855 11.1904C9.73506 10.8714 10.036 10.607 10.6392 10.0792L17.8415 3.77708C18.9597 2.79863 19.5189 2.30938 20.1486 2.12315C20.7039 1.95895 21.2958 1.95895 21.8511 2.12315C22.4812 2.30951 23.0412 2.79923 24.1611 3.77917L31.3611 10.0792C31.9643 10.6069 32.2653 10.8715 32.4819 11.1904C32.6738 11.473 32.8155 11.7858 32.9019 12.1163C32.9993 12.4893 33 12.8903 33 13.6917V26.5136M18 26.5136H24M18 26.5136V20.5136C18 18.8567 19.3431 17.5136 21 17.5136C22.6569 17.5136 24 18.8567 24 20.5136V26.5136M33 26.5136H24M33 26.5136H36" stroke="white" stroke-width="3.33333" stroke-linecap="round" stroke-linejoin="round" shape-rendering="crispEdges"/>
</g>
<defs>
<filter id="filter0_d_0_675" x="0.333374" y="0.333328" width="41.3333" height="35.8469" filterUnits="userSpaceOnUse" color-interpolation-filters="sRGB">
<feFlood flood-opacity="0" result="BackgroundImageFix"/>
<feColorMatrix in="SourceAlpha" type="matrix" values="0 0 0 0 0 0 0 0 0 0 0 0 0 0 0 0 0 0 127 0" result="hardAlpha"/>
<feOffset dy="4"/>
<feGaussianBlur stdDeviation="2"/>
<feComposite in2="hardAlpha" operator="out"/>
<feColorMatrix type="matrix" values="0 0 0 0 0 0 0 0 0 0 0 0 0 0 0 0 0 0 0.25 0"/>
<feBlend mode="normal" in2="BackgroundImageFix" result="effect1_dropShadow_0_675"/>
<feBlend mode="normal" in="SourceGraphic" in2="effect1_dropShadow_0_675" result="shape"/>
</filter>
</defs>
</svg>
