<svg width="31" height="25" viewBox="0 0 31 25" fill="none" xmlns="http://www.w3.org/2000/svg">
<path fill-rule="evenodd" clip-rule="evenodd" d="M0.243823 1.81337L13.1607 15.2064C14.4387 16.5316 16.5613 16.5316 17.8393 15.2064L30.7562 1.81337C30.9131 2.17731 31 2.57851 31 3V22C31 23.6569 29.6569 25 28 25H3C1.34315 25 0 23.6569 0 22V3C0 2.57851 0.0869235 2.17731 0.243823 1.81337ZM1.7621 0.2665L14.7202 13.7023C15.1462 14.1441 15.8538 14.1441 16.2798 13.7023L29.2379 0.266501C28.8605 0.095321 28.4414 0 28 0H3C2.55862 0 2.13949 0.095321 1.7621 0.2665Z" fill="white"/>
</svg>
