<svg width="40" height="40" viewBox="0 0 40 40" fill="none" xmlns="http://www.w3.org/2000/svg">
<g filter="url(#filter0_d_0_889)">
<path fill-rule="evenodd" clip-rule="evenodd" d="M20 29.125C12.7513 29.125 6.875 23.2469 6.875 16C6.875 8.75313 12.7513 2.875 20 2.875C27.2488 2.875 33.125 8.75313 33.125 16C33.125 23.2469 27.2488 29.125 20 29.125ZM20 1C11.7153 1 5 7.7125 5 16C5 24.2875 11.7153 31 20 31C28.2847 31 35 24.2875 35 16C35 7.7125 28.2847 1 20 1ZM25.625 15.0625H20.9375V10.375C20.9375 9.85938 20.5184 9.4375 20 9.4375C19.4816 9.4375 19.0625 9.85938 19.0625 10.375V15.0625H14.375C13.8566 15.0625 13.4375 15.4844 13.4375 16C13.4375 16.5156 13.8566 16.9375 14.375 16.9375H19.0625V21.625C19.0625 22.1406 19.4816 22.5625 20 22.5625C20.5184 22.5625 20.9375 22.1406 20.9375 21.625V16.9375H25.625C26.1434 16.9375 26.5625 16.5156 26.5625 16C26.5625 15.4844 26.1434 15.0625 25.625 15.0625Z" fill="white"/>
<path fill-rule="evenodd" clip-rule="evenodd" d="M20 29.125C12.7513 29.125 6.875 23.2469 6.875 16C6.875 8.75313 12.7513 2.875 20 2.875C27.2488 2.875 33.125 8.75313 33.125 16C33.125 23.2469 27.2488 29.125 20 29.125ZM20 1C11.7153 1 5 7.7125 5 16C5 24.2875 11.7153 31 20 31C28.2847 31 35 24.2875 35 16C35 7.7125 28.2847 1 20 1ZM25.625 15.0625H20.9375V10.375C20.9375 9.85938 20.5184 9.4375 20 9.4375C19.4816 9.4375 19.0625 9.85938 19.0625 10.375V15.0625H14.375C13.8566 15.0625 13.4375 15.4844 13.4375 16C13.4375 16.5156 13.8566 16.9375 14.375 16.9375H19.0625V21.625C19.0625 22.1406 19.4816 22.5625 20 22.5625C20.5184 22.5625 20.9375 22.1406 20.9375 21.625V16.9375H25.625C26.1434 16.9375 26.5625 16.5156 26.5625 16C26.5625 15.4844 26.1434 15.0625 25.625 15.0625Z" stroke="white" stroke-width="1.2"/>
</g>
<defs>
<filter id="filter0_d_0_889" x="0.400024" y="0.400024" width="39.2" height="39.2" filterUnits="userSpaceOnUse" color-interpolation-filters="sRGB">
<feFlood flood-opacity="0" result="BackgroundImageFix"/>
<feColorMatrix in="SourceAlpha" type="matrix" values="0 0 0 0 0 0 0 0 0 0 0 0 0 0 0 0 0 0 127 0" result="hardAlpha"/>
<feOffset dy="4"/>
<feGaussianBlur stdDeviation="2"/>
<feComposite in2="hardAlpha" operator="out"/>
<feColorMatrix type="matrix" values="0 0 0 0 0 0 0 0 0 0 0 0 0 0 0 0 0 0 0.25 0"/>
<feBlend mode="normal" in2="BackgroundImageFix" result="effect1_dropShadow_0_889"/>
<feBlend mode="normal" in="SourceGraphic" in2="effect1_dropShadow_0_889" result="shape"/>
</filter>
</defs>
</svg>
