<svg width="375" height="40" viewBox="0 0 375 40" fill="none" xmlns="http://www.w3.org/2000/svg">
<path d="M253.915 20C253.915 31.0457 245.875 40 235.958 40C226.04 40 218 31.0457 218 20C218 8.95431 226.04 0 235.958 0C245.875 0 253.915 8.95431 253.915 20Z" fill="url(#paint0_linear_0_958)"/>
<path d="M236.471 0H375V40H236.471V0Z" fill="url(#paint1_linear_0_958)"/>
<path d="M121.085 20C121.085 31.0457 129.125 40 139.042 40C148.96 40 157 31.0457 157 20C157 8.9543 148.96 0 139.042 0C129.125 0 121.085 8.9543 121.085 20Z" fill="url(#paint2_linear_0_958)"/>
<path d="M138.529 0H0V40H138.529V0Z" fill="url(#paint3_linear_0_958)"/>
<defs>
<linearGradient id="paint0_linear_0_958" x1="375" y1="19.4286" x2="10.1204" y2="19.4286" gradientUnits="userSpaceOnUse">
<stop stop-color="#943636"/>
<stop offset="1" stop-color="#334397"/>
</linearGradient>
<linearGradient id="paint1_linear_0_958" x1="375" y1="19.4286" x2="10.1204" y2="19.4286" gradientUnits="userSpaceOnUse">
<stop stop-color="#943636"/>
<stop offset="1" stop-color="#334397"/>
</linearGradient>
<linearGradient id="paint2_linear_0_958" x1="358.307" y1="19.4286" x2="-2.28764e-08" y2="19.4286" gradientUnits="userSpaceOnUse">
<stop stop-color="#943636"/>
<stop offset="1" stop-color="#334397"/>
</linearGradient>
<linearGradient id="paint3_linear_0_958" x1="358.307" y1="19.4286" x2="-2.28764e-08" y2="19.4286" gradientUnits="userSpaceOnUse">
<stop stop-color="#943636"/>
<stop offset="1" stop-color="#334397"/>
</linearGradient>
</defs>
</svg>
